<svg xmlns="http://www.w3.org/2000/svg" width="200" height="200" viewBox="0 0 200 200">
  <rect width="200" height="200" fill="white" />
  
  <!-- Simple QR code for demonstration -->
  <g fill="#333">
    <!-- Position detection patterns -->
    <rect x="20" y="20" width="40" height="40" />
    <rect x="25" y="25" width="30" height="30" fill="white" />
    <rect x="30" y="30" width="20" height="20" />
    
    <rect x="140" y="20" width="40" height="40" />
    <rect x="145" y="25" width="30" height="30" fill="white" />
    <rect x="150" y="30" width="20" height="20" />
    
    <rect x="20" y="140" width="40" height="40" />
    <rect x="25" y="145" width="30" height="30" fill="white" />
    <rect x="30" y="150" width="20" height="20" />
    
    <!-- QR code data modules (simplified) -->
    <rect x="70" y="20" width="10" height="10" />
    <rect x="90" y="20" width="10" height="10" />
    <rect x="110" y="20" width="10" height="10" />
    
    <rect x="20" y="70" width="10" height="10" />
    <rect x="50" y="70" width="10" height="10" />
    <rect x="70" y="70" width="10" height="10" />
    <rect x="90" y="70" width="10" height="10" />
    <rect x="110" y="70" width="10" height="10" />
    <rect x="140" y="70" width="10" height="10" />
    <rect x="170" y="70" width="10" height="10" />
    
    <rect x="20" y="90" width="10" height="10" />
    <rect x="40" y="90" width="10" height="10" />
    <rect x="60" y="90" width="10" height="10" />
    <rect x="120" y="90" width="10" height="10" />
    <rect x="150" y="90" width="10" height="10" />
    <rect x="170" y="90" width="10" height="10" />
    
    <rect x="40" y="110" width="10" height="10" />
    <rect x="70" y="110" width="10" height="10" />
    <rect x="100" y="110" width="10" height="10" />
    <rect x="120" y="110" width="10" height="10" />
    <rect x="150" y="110" width="10" height="10" />
    
    <rect x="70" y="130" width="10" height="10" />
    <rect x="90" y="130" width="10" height="10" />
    <rect x="120" y="130" width="10" height="10" />
    <rect x="140" y="130" width="10" height="10" />
    <rect x="170" y="130" width="10" height="10" />
    
    <rect x="70" y="150" width="10" height="10" />
    <rect x="100" y="150" width="10" height="10" />
    <rect x="120" y="150" width="10" height="10" />
    <rect x="150" y="150" width="10" height="10" />
    
    <rect x="70" y="170" width="10" height="10" />
    <rect x="100" y="170" width="10" height="10" />
    <rect x="130" y="170" width="10" height="10" />
    <rect x="170" y="170" width="10" height="10" />
    
    <text x="100" y="190" font-family="Arial" font-size="8" text-anchor="middle" fill="#333">富士宮AIハッカソン申込フォーム</text>
  </g>
</svg>
</svg>
